<svg width="22" height="22" viewBox="0 0 22 22" fill="none" xmlns="http://www.w3.org/2000/svg">
<path d="M17.8423 9.42408V7.3192C17.8423 6.76095 17.6205 6.22557 17.2257 5.83083C16.8309 5.43609 16.2954 5.21432 15.7371 5.21432H7.31616C6.75782 5.21432 6.22235 5.43609 5.82754 5.83083C5.43274 6.22557 5.21094 6.76095 5.21094 7.3192V15.7387C5.21094 16.297 5.43274 16.8323 5.82754 17.2271C6.22235 17.6218 6.75782 17.8436 7.31616 17.8436H9.42139" stroke="white" stroke-width="1.2" stroke-linecap="round" stroke-linejoin="round"/>
<path d="M11.5254 11.528L20.9989 14.6854L16.7885 16.7902L14.6832 21L11.5254 11.528Z" stroke="white" stroke-width="1.2" stroke-linecap="round" stroke-linejoin="round"/>
<path d="M1 1V1.01044" stroke="white" stroke-width="1.2" stroke-linecap="round" stroke-linejoin="round"/>
<path d="M5.21114 1V1.01044" stroke="white" stroke-width="1.2" stroke-linecap="round" stroke-linejoin="round"/>
<path d="M9.41992 1V1.01044" stroke="white" stroke-width="1.2" stroke-linecap="round" stroke-linejoin="round"/>
<path d="M13.6309 1V1.01044" stroke="white" stroke-width="1.2" stroke-linecap="round" stroke-linejoin="round"/>
<path d="M1 5.21432V5.22476" stroke="white" stroke-width="1.2" stroke-linecap="round" stroke-linejoin="round"/>
<path d="M1 9.4209V9.43134" stroke="white" stroke-width="1.2" stroke-linecap="round" stroke-linejoin="round"/>
<path d="M1 13.6275V13.6379" stroke="white" stroke-width="1.2" stroke-linecap="round" stroke-linejoin="round"/>
</svg>
